<mxfile host="app.diagrams.net" modified="2024-06-10T13:37:13.107Z" agent="Mozilla/5.0 (Macintosh; Intel Mac OS X 10_15_7) AppleWebKit/605.1.15 (KHTML, like Gecko) Version/17.5 Safari/605.1.15" version="24.5.2" etag="bcfl0y0K4p1bpG0gPIBa" type="github">
  <diagram name="페이지-1" id="E8dbG-JxSmd-lq2EpymM">
    <mxGraphModel>
      <root>
        <mxCell id="0" />
        <mxCell id="1" parent="0" />
      </root>
    </mxGraphModel>
  </diagram>
</mxfile>
